# xmcd
#
# Track frame offsets:
#	150
#	19050
#	38175
#	56700
#	69300
#	87375
#	100725
#	118575
#	134401
#	150226
#	169127
#
# Disc length: 2548 seconds
#
# Revision: 1
# Processed by: cddbd v1.5.2PL0 Copyright (c) Steve Scherf et al.
# Submitted via: audiograbber 1.83.01
#
DISCID=8909f20b
DTITLE=Santana - SKG940
DYEAR=2000
DGENRE=Karaoke
TTITLE0=Put Your Lights On
TTITLE1=I Get Lost
TTITLE2=Love Of My Life
TTITLE3=Black Magic Woman
TTITLE4=Open Invitation
TTITLE5=Oye Como Va
TTITLE6=Dance Sister Dance
TTITLE7=Winning
TTITLE8=Hope You're Feeling Better
TTITLE9=Stormy
TTITLE10=Wishing It Was
EXTD=
EXTT0=
EXTT1=
EXTT2=
EXTT3=
EXTT4=
EXTT5=
EXTT6=
EXTT7=
EXTT8=
EXTT9=
EXTT10=
PLAYORDER=
